D:\Gebruiker\Documents\~school~\WTK\thesis\model\3dpredictsim_Lars\Results\Test_Lars\Test1_alphaCst_exo_GRF.mot
nRows=20
nColumns=19

name D:\Gebruiker\Documents\~school~\WTK\thesis\model\3dpredictsim_Lars\Results\Test_Lars\Test1_alphaCst_exo_GRF.mot
datacolumns 19
datarows 20
range 0.5846712759 0.8068463607
endheader
time 	ground_force_vx	ground_force_vy	ground_force_vz	ground_force_px	ground_force_py	ground_force_pz	1_ground_force_vx	1_ground_force_vy	1_ground_force_vz	1_ground_force_px	1_ground_force_py	1_ground_force_pz	ground_torque_x	ground_torque_y	ground_torque_z	1_ground_torque_x	1_ground_torque_y	1_ground_torque_z
        0.5846712759	       99.6201508943	      408.2155215373	        4.2993958555	        0.3838147995	        0.0000000000	        0.0340002225	      -71.3991327619	       55.2697434737	      -18.2612788562	        0.8951011461	        0.0000000000	       -0.0519198046	        0.0000000000	        0.0000000000	        0.0000000000	        0.0000000000	        0.0000000000	        0.0000000000	
        0.5963647014	       66.1002296767	      306.2854295019	        9.6996709973	        0.3916768524	        0.0000000000	        0.0306069776	     -136.6104466645	      140.1017732987	      -50.8143041357	        0.9035735404	        0.0000000000	       -0.0500045479	        0.0000000000	        0.0000000000	        0.0000000000	        0.0000000000	        0.0000000000	        0.0000000000	
        0.6080581269	       35.3951254108	      204.2343043658	       14.9919045103	        0.4049199164	        0.0000000000	        0.0243324233	      -63.0014050333	      310.2660107552	      -20.0080498113	        0.9103525041	        0.0000000000	       -0.0482806932	        0.0000000000	        0.0000000000	        0.0000000000	        0.0000000000	        0.0000000000	        0.0000000000	
        0.6197515524	       24.1425067754	      159.5081544168	       15.0569079269	        0.4095749268	        0.0000000000	        0.0218378274	      -57.5149805007	      528.3414551392	        4.3787931209	        0.9166678293	        0.0000000000	       -0.0489497724	        0.0000000000	        0.0000000000	        0.0000000000	        0.0000000000	        0.0000000000	        0.0000000000	
        0.6314449779	       19.5897996704	      116.8222356279	       16.3102377038	        0.4099972352	        0.0000000000	        0.0220494347	      -97.5590737633	      765.5633199790	       16.3454682408	        0.9264551870	        0.0000000000	       -0.0512518143	        0.0000000000	        0.0000000000	        0.0000000000	        0.0000000000	        0.0000000000	        0.0000000000	
        0.6431384035	        8.3041003358	       64.3954994355	       13.9156404578	        0.4101246083	        0.0000000000	        0.0222784331	     -122.9418247632	      883.5243592777	       21.9660553707	        0.9328142749	        0.0000000000	       -0.0526495528	        0.0000000000	        0.0000000000	        0.0000000000	        0.0000000000	        0.0000000000	        0.0000000000	
        0.6548318290	       -3.5837576152	        9.8437401448	        2.8513453769	        0.0000000000	        0.0000000000	        0.0000000000	     -126.9899112685	      903.5073291796	       22.0329890259	        0.9370113142	        0.0000000000	       -0.0534462020	        0.0000000000	        0.0000000000	        0.0000000000	        0.0000000000	        0.0000000000	        0.0000000000	
        0.6665252545	        0.0021148464	       -0.0019164466	       -0.0000137793	        0.0000000000	        0.0000000000	        0.0000000000	     -116.0736358550	      875.5220762252	       21.9815197514	        0.9407805140	        0.0000000000	       -0.0538580081	        0.0000000000	        0.0000000000	        0.0000000000	        0.0000000000	        0.0000000000	        0.0000000000	
        0.6782186800	        0.0004237069	       -0.0003240104	        0.0000167005	        0.0000000000	        0.0000000000	        0.0000000000	     -102.1347909678	      825.6518151173	       20.6043424289	        0.9448239386	        0.0000000000	       -0.0539674137	        0.0000000000	        0.0000000000	        0.0000000000	        0.0000000000	        0.0000000000	        0.0000000000	
        0.6899121055	        0.0016737664	       -0.0011183382	        0.0000960060	        0.0000000000	        0.0000000000	        0.0000000000	      -90.8626733870	      779.6770947107	       20.0172886232	        0.9495808960	        0.0000000000	       -0.0538444708	        0.0000000000	        0.0000000000	        0.0000000000	        0.0000000000	        0.0000000000	        0.0000000000	
        0.7016055311	        0.0246684695	       -0.0148746975	        0.0016045040	        0.0000000000	        0.0000000000	        0.0000000000	      -81.4367106596	      743.2338056079	       19.7957287886	        0.9550177417	        0.0000000000	       -0.0535287451	        0.0000000000	        0.0000000000	        0.0000000000	        0.0000000000	        0.0000000000	        0.0000000000	
        0.7132989566	       -0.1259290598	        0.0702178623	       -0.0088464002	        0.0000000000	        0.0000000000	        0.0000000000	      -72.3471275743	      710.6863229004	       20.1044217175	        0.9603521174	        0.0000000000	       -0.0531410429	        0.0000000000	        0.0000000000	        0.0000000000	        0.0000000000	        0.0000000000	        0.0000000000	
        0.7249923821	       -0.0863419015	        0.0454983897	       -0.0060921125	        0.0000000000	        0.0000000000	        0.0000000000	      -63.3621141533	      681.2214393708	       20.4353013563	        0.9652488030	        0.0000000000	       -0.0528234695	        0.0000000000	        0.0000000000	        0.0000000000	        0.0000000000	        0.0000000000	        0.0000000000	
        0.7366858076	       -0.0521269832	        0.0262190405	       -0.0037599334	        0.0000000000	        0.0000000000	        0.0000000000	      -54.8293108692	      656.6173087217	       20.9915772915	        0.9699225990	        0.0000000000	       -0.0525770136	        0.0000000000	        0.0000000000	        0.0000000000	        0.0000000000	        0.0000000000	        0.0000000000	
        0.7483792331	       -0.0372365805	        0.0180030793	       -0.0027449638	        0.0000000000	        0.0000000000	        0.0000000000	      -47.1399703132	      636.4534411316	       21.3854059086	        0.9745614805	        0.0000000000	       -0.0523778569	        0.0000000000	        0.0000000000	        0.0000000000	        0.0000000000	        0.0000000000	        0.0000000000	
        0.7600726586	       -0.0331814965	        0.0155158398	       -0.0025005531	        0.0000000000	        0.0000000000	        0.0000000000	      -39.8536244387	      620.2363008683	       21.8086946528	        0.9794380006	        0.0000000000	       -0.0521754083	        0.0000000000	        0.0000000000	        0.0000000000	        0.0000000000	        0.0000000000	        0.0000000000	
        0.7717660842	       -0.0365112214	        0.0165851009	       -0.0027932487	        0.0000000000	        0.0000000000	        0.0000000000	      -33.6311756848	      608.2802127456	       22.1247186968	        0.9849981667	        0.0000000000	       -0.0519031659	        0.0000000000	        0.0000000000	        0.0000000000	        0.0000000000	        0.0000000000	        0.0000000000	
        0.7834595097	       -0.0484921662	        0.0214642097	       -0.0037475241	        0.0000000000	        0.0000000000	        0.0000000000	      -28.8578204868	      600.4569106841	       22.1634674709	        0.9911737739	        0.0000000000	       -0.0515280979	        0.0000000000	        0.0000000000	        0.0000000000	        0.0000000000	        0.0000000000	        0.0000000000	
        0.7951529352	       -0.0747914489	        0.0323256545	       -0.0057821795	        0.0000000000	        0.0000000000	        0.0000000000	      -24.8672325416	      595.6750219341	       21.6493529447	        0.9977402935	        0.0000000000	       -0.0510591156	        0.0000000000	        0.0000000000	        0.0000000000	        0.0000000000	        0.0000000000	        0.0000000000	
        0.8068463607	       -0.1271877621	        0.0537923434	       -0.0096830276	        0.0000000000	        0.0000000000	        0.0000000000	      -21.2723726325	      592.6229305551	       20.7282282060	        1.0045010302	        0.0000000000	       -0.0505144759	        0.0000000000	        0.0000000000	        0.0000000000	        0.0000000000	        0.0000000000	        0.0000000000	
